<svg width="0" height="0" class="hidden">
  <symbol xmlns="http://www.w3.org/2000/svg" viewBox="0 0 25 25" id="tripadvisor">
    <path d="M17.178 11.784c-.844 0-1.534.665-1.534 1.509 0 .843.69 1.533 1.508 1.533a1.51 1.51 0 001.508-1.508 1.465 1.465 0 00-1.482-1.534zm0 2.275a.753.753 0 01-.767-.766c0-.435.332-.767.767-.767a.77.77 0 01.767.767.769.769 0 01-.767.767zM7.796 9.586c-2.019-.026-3.783 1.662-3.732 3.809.026 1.994 1.688 3.706 3.784 3.68 2.045-.025 3.706-1.686 3.706-3.731a3.747 3.747 0 00-3.758-3.758zm.052 6.033c-1.355.05-2.454-1.023-2.454-2.326 0-1.33 1.099-2.352 2.326-2.327a2.318 2.318 0 012.326 2.327c.026 1.303-.997 2.275-2.198 2.326z"></path>
    <path d="M12.5 0C5.598 0 0 5.598 0 12.5S5.598 25 12.5 25 25 19.402 25 12.5 19.402 0 12.5 0zm7.183 17.357a4.6 4.6 0 01-2.505.716c-.384 0-.767-.052-1.125-.154a4.808 4.808 0 01-2.3-1.355c-.077-.076-.154-.178-.256-.28-.332.51-.665.996-.997 1.507-.332-.51-.665-.997-.997-1.482-.026 0-.026.025-.026.025l-.025.026c-.767.92-1.738 1.457-2.914 1.662a4.526 4.526 0 01-1.943-.103 4.753 4.753 0 01-2.3-1.431c-.614-.69-.972-1.483-1.125-2.403-.154-.844.025-1.662.076-1.866.154-.588.384-1.1.742-1.585.025-.026.025-.102.025-.128-.128-.511-.383-.971-.664-1.431-.077-.103-.154-.205-.23-.333v-.025h2.888c.051 0 .077-.026.128-.051a9.543 9.543 0 012.122-1.023 11.853 11.853 0 011.636-.434 11.443 11.443 0 011.636-.205 13.923 13.923 0 013.118.128c.537.077 1.048.204 1.56.358.894.28 1.712.664 2.505 1.15a.482.482 0 00.204.051h2.99v.026c-.05.076-.076.128-.127.204-.307.486-.588.972-.741 1.534-.026.051-.026.102.025.179.818 1.176 1.074 2.48.742 3.885-.358 1.202-1.048 2.148-2.122 2.838z"></path>
    <path d="M7.72 11.784c-.818 0-1.508.69-1.508 1.509 0 .843.69 1.508 1.533 1.508.818 0 1.509-.69 1.509-1.534 0-.818-.665-1.483-1.534-1.483zm.025 2.301a.78.78 0 01-.792-.792c0-.435.332-.767.767-.767.434 0 .767.332.792.767.026.434-.332.767-.767.792zm9.356-4.473a3.76 3.76 0 00-3.68 3.732c0 2.07 1.686 3.783 3.757 3.757a3.748 3.748 0 003.758-3.757A3.727 3.727 0 0017.1 9.612zm.18 6.007a2.327 2.327 0 01-2.43-2.326c0-1.33 1.1-2.352 2.327-2.327a2.318 2.318 0 012.326 2.327 2.333 2.333 0 01-2.224 2.326z"></path>
    <path d="M13.983 9.867c.818-.767 1.814-1.15 2.94-1.252-1.33-.588-2.736-.844-4.193-.87-1.636-.025-3.246.205-4.755.844 1.15.077 2.148.46 2.991 1.227.844.767 1.33 1.738 1.508 2.863.205-1.1.69-2.045 1.509-2.812z"></path>
  </symbol>

  <symbol xmlns="http://www.w3.org/2000/svg" viewBox="0 0 25 25" id="twitter">
    <g clip-path="url(#clip0)">
      <path d="M12.5 0C5.598 0 0 5.598 0 12.5S5.598 25 12.5 25 25 19.402 25 12.5 19.402 0 12.5 0zm7.54 9.151v.435c0 5.342-4.063 10.864-10.863 10.864-2.07 0-4.09-.588-5.854-1.713-.025-.025-.051-.076-.025-.102.025-.051.05-.077.102-.051.281.025.588.051.894.051a7.53 7.53 0 004.448-1.457 3.872 3.872 0 01-3.374-2.684c0-.026 0-.077.026-.102.025-.026.05-.026.076-.026.435.077.87.077 1.278.026a3.874 3.874 0 01-2.735-3.707v-.051c0-.026.026-.051.051-.077.026-.025.052-.025.103 0 .409.23.869.384 1.354.435A3.879 3.879 0 014.064 7.95c0-.69.18-1.355.537-1.943.026-.025.051-.051.077-.051.025 0 .051 0 .077.026 1.891 2.3 4.652 3.732 7.617 3.91a3.884 3.884 0 013.809-4.652c1.048 0 2.07.435 2.786 1.176.818-.179 1.61-.46 2.326-.895a.078.078 0 01.103 0c.025.026.05.077.025.103a3.953 3.953 0 01-1.355 1.917 6.552 6.552 0 001.739-.537c.025-.025.076 0 .102.026a.078.078 0 010 .102c-.486.843-1.125 1.483-1.866 2.02z"></path>
    </g>
    <defs>
      <clipPath id="clip0">
        <path d="M0 0h25v25H0z"></path>
      </clipPath>
    </defs>
  </symbol>

  <symbol xmlns="http://www.w3.org/2000/svg" viewBox="0 0 25 25" id="facebook">
    <path d="M12.5 0C5.598 0 0 5.598 0 12.5S5.598 25 12.5 25 25 19.402 25 12.5 19.402 0 12.5 0zm4.755 6.365h-1.739c-1.354 0-1.61.64-1.61 1.585v2.07h3.22v3.272h-3.22v8.385h-3.349v-8.385H7.745v-3.246h2.812V7.643c0-2.786 1.713-4.32 4.192-4.32h2.531l-.025 3.042z"></path>
  </symbol>

  <symbol xmlns="http://www.w3.org/2000/svg" viewBox="0 0 25 25" id="vk">
    <path d="M12.5 0C5.598 0 0 5.598 0 12.5S5.598 25 12.5 25 25 19.402 25 12.5 19.402 0 12.5 0zm6.34 13.855c.587.562 1.2 1.099 1.712 1.738.23.281.46.562.614.895.23.46.025.971-.384.997h-2.556c-.665.05-1.176-.205-1.636-.665-.358-.358-.69-.741-1.022-1.125a1.762 1.762 0 00-.46-.409c-.359-.23-.665-.153-.844.205-.205.383-.256.792-.281 1.201-.026.614-.205.767-.818.793-1.304.05-2.531-.128-3.656-.793-.997-.588-1.79-1.38-2.454-2.3-1.329-1.79-2.326-3.758-3.246-5.777-.205-.46-.051-.69.46-.716a40.93 40.93 0 012.505 0c.332 0 .562.204.69.511.46 1.1.997 2.173 1.687 3.144.18.256.384.511.64.716.306.204.51.128.664-.205.077-.204.128-.434.153-.664a8.668 8.668 0 00-.05-2.3c-.077-.512-.333-.819-.819-.921-.255-.051-.204-.128-.102-.281.204-.23.409-.384.792-.384h2.889c.46.103.562.282.614.742v3.22c0 .18.076.716.409.819.255.076.434-.128.587-.282.69-.741 1.176-1.61 1.636-2.505.205-.409.358-.818.537-1.227.128-.307.307-.46.665-.46h2.786c.077 0 .154 0 .256.026.46.076.588.28.46.741-.23.716-.665 1.33-1.1 1.917-.46.64-.97 1.253-1.43 1.917-.46.614-.435.92.101 1.432z"></path>
  </symbol>

  <symbol xmlns="http://www.w3.org/2000/svg" viewBox="0 0 25 25" id="instagram">
    <path d="M10.107 12.5a2.393 2.393 0 104.786 0 2.393 2.393 0 00-4.786 0z"></path>
    <path d="M6.905 8.267c.115-.312.298-.594.537-.825.231-.239.513-.422.825-.537.253-.099.633-.215 1.332-.247.758-.035.985-.042 2.901-.042 1.917 0 2.144.007 2.9.041.7.033 1.08.15 1.333.248.312.115.594.298.825.537.239.231.422.513.538.825.098.253.215.633.247 1.333.034.757.042.984.042 2.9 0 1.917-.008 2.144-.042 2.9-.032.7-.15 1.08-.247 1.333a2.225 2.225 0 01-.537.826 2.223 2.223 0 01-.826.537c-.253.098-.633.215-1.333.247-.756.034-.983.042-2.9.042-1.917 0-2.144-.008-2.9-.042-.7-.032-1.08-.149-1.333-.247a2.377 2.377 0 01-1.362-1.363c-.099-.253-.216-.632-.248-1.332-.034-.757-.041-.984-.041-2.9 0-1.917.007-2.144.041-2.901.032-.7.15-1.08.248-1.333zm5.595 7.919a3.686 3.686 0 100-7.372 3.686 3.686 0 000 7.372zM8.669 9.53a.861.861 0 100-1.723.861.861 0 000 1.723z"></path>
    <path d="M12.5 0C19.402 0 25 5.598 25 12.5S19.402 25 12.5 25 0 19.402 0 12.5 5.598 0 12.5 0zM5.366 15.46c.034.763.156 1.285.333 1.742A3.67 3.67 0 007.8 19.3c.456.177.978.299 1.742.333.765.035 1.01.044 2.959.044 1.95 0 2.194-.009 2.96-.044.763-.035 1.285-.156 1.741-.333.48-.18.913-.463 1.272-.828a3.52 3.52 0 00.828-1.271c.177-.457.299-.979.333-1.743.035-.765.044-1.01.044-2.959 0-1.95-.009-2.194-.044-2.96-.034-.763-.156-1.285-.333-1.742a3.516 3.516 0 00-.828-1.27 3.516 3.516 0 00-1.271-.829c-.457-.177-.979-.299-1.743-.333-.765-.035-1.01-.044-2.959-.044-1.95 0-2.194.009-2.96.044-.763.034-1.285.156-1.742.333a3.52 3.52 0 00-1.271.828A3.517 3.517 0 005.7 7.797c-.177.457-.299.979-.334 1.743-.035.765-.043 1.01-.043 2.959 0 1.95.008 2.194.044 2.96z"></path>
  </symbol>
</svg>
